<?xml version="1.0" encoding="UTF-8"?>
<svg width="1075px" height="434px" viewBox="0 0 1075 434" version="1.1" xmlns="http://www.w3.org/2000/svg" xmlns:xlink="http://www.w3.org/1999/xlink">
    <!-- Generator: Sketch 46.1 (44463) - http://www.bohemiancoding.com/sketch -->
    <title>Group</title>
    <desc>Created with Sketch.</desc>
    <defs/>
    <g id="Site" stroke="none" stroke-width="1" fill="none" fill-rule="evenodd">
        <g id="Homepage" transform="translate(-76.000000, -1613.000000)">
            <g id="2nd-cta" transform="translate(0.000000, 1535.000000)">
                <g id="BG-illos" transform="translate(76.000000, 77.000000)">
                    <g id="Group">
                        <g id="confetti" transform="translate(0.000000, 0.901000)">
                            <path d="M1010.7225,51.2197 L1018.6685,51.2197 C1018.6685,55.9937 1022.5535,59.8787 1027.3295,59.8787 L1027.3295,67.8257 C1018.1725,67.8257 1010.7225,60.3767 1010.7225,51.2197" id="Fill-78" fill="#FDC480"/>
                            <path d="M42.8709,304.1299 L50.8179,304.1299 C50.8179,308.9049 54.7019,312.7889 59.4769,312.7889 L59.4769,320.7359 C50.3209,320.7359 42.8709,313.2869 42.8709,304.1299" id="Fill-79" fill="#FDC480"/>
                            <path d="M729.2264,92.0557 C729.2264,93.5537 728.0124,94.7687 726.5144,94.7687 C725.0164,94.7687 723.8014,93.5537 723.8014,92.0557 C723.8014,90.5587 725.0164,89.3437 726.5144,89.3437 C728.0124,89.3437 729.2264,90.5587 729.2264,92.0557" id="Fill-80" fill="#60D2F4"/>
                            <path d="M837.4324,383.6396 C837.4324,385.1376 836.2174,386.3516 834.7204,386.3516 C833.2224,386.3516 832.0074,385.1376 832.0074,383.6396 C832.0074,382.1416 833.2224,380.9276 834.7204,380.9276 C836.2174,380.9276 837.4324,382.1416 837.4324,383.6396" id="Fill-81" fill="#6259C4"/>
                            <path d="M679.2498,299.2734 C679.2498,302.2834 676.8108,304.7214 673.8018,304.7214 C670.7928,304.7214 668.3538,302.2834 668.3538,299.2734 C668.3538,296.2644 670.7928,293.8264 673.8018,293.8264 C676.8108,293.8264 679.2498,296.2644 679.2498,299.2734" id="Fill-82" fill="#60D2F4"/>
                            <path d="M967.3494,160.9668 C967.3494,163.9768 964.9114,166.4148 961.9014,166.4148 C958.8924,166.4148 956.4534,163.9768 956.4534,160.9668 C956.4534,157.9578 958.8924,155.5198 961.9014,155.5198 C964.9114,155.5198 967.3494,157.9578 967.3494,160.9668" id="Fill-83" fill="#60D2F4"/>
                            <path d="M419.2957,14.9707 C419.2957,17.9807 416.8567,20.4187 413.8477,20.4187 C410.8387,20.4187 408.3997,17.9807 408.3997,14.9707 C408.3997,11.9617 410.8387,9.5237 413.8477,9.5237 C416.8567,9.5237 419.2957,11.9617 419.2957,14.9707" id="Fill-84" fill="#FF5161"/>
                            <path d="M1024.4501,347.4639 C1024.4501,348.9619 1023.2351,350.1769 1021.7371,350.1769 C1020.2401,350.1769 1019.0251,348.9619 1019.0251,347.4639 C1019.0251,345.9669 1020.2401,344.7519 1021.7371,344.7519 C1023.2351,344.7519 1024.4501,345.9669 1024.4501,347.4639" id="Fill-85" fill="#6259C4"/>
                            <path d="M641.3758,329.5566 C641.3758,331.0546 640.1608,332.2686 638.6628,332.2686 C637.1658,332.2686 635.9508,331.0546 635.9508,329.5566 C635.9508,328.0586 637.1658,326.8446 638.6628,326.8446 C640.1608,326.8446 641.3758,328.0586 641.3758,329.5566" id="Fill-86" fill="#FDC480"/>
                            <path d="M265.7693,27.873 C265.7693,29.37 264.5553,30.585 263.0573,30.585 C261.5593,30.585 260.3443,29.37 260.3443,27.873 C260.3443,26.375 261.5593,25.16 263.0573,25.16 C264.5553,25.16 265.7693,26.375 265.7693,27.873" id="Fill-87" fill="#6259C4"/>
                            <path d="M919.6043,5.3369 C919.6043,6.8349 918.3903,8.0489 916.8923,8.0489 C915.3943,8.0489 914.1803,6.8349 914.1803,5.3369 C914.1803,3.8389 915.3943,2.6249 916.8923,2.6249 C918.3903,2.6249 919.6043,3.8389 919.6043,5.3369" id="Fill-88" fill="#FF5161"/>
                            <path d="M305.3455,276.6162 L310.9655,270.9962 C314.3415,274.3732 319.8345,274.3732 323.2115,270.9962 L328.8305,276.6162 C322.3565,283.0902 311.8215,283.0912 305.3455,276.6162" id="Fill-89" fill="#60D2F4"/>
                            <path d="M1057.7264,302.1289 L1057.7264,294.1819 C1062.5014,294.1819 1066.3864,290.2979 1066.3864,285.5229 L1074.3324,285.5229 C1074.3324,294.6789 1066.8834,302.1289 1057.7264,302.1289" id="Fill-90" fill="#60D2F4"/>
                            <polygon id="Fill-91" fill="#6259C4" points="-0.0002 13.3262 13.2288 0.0992 18.8478 5.7202 5.6188 18.9462"/>
                            <path d="M838.3026,94.0361 L838.3026,101.9831 C833.5286,101.9831 829.6436,105.8681 829.6436,110.6421 L821.6966,110.6421 C821.6966,101.4861 829.1466,94.0361 838.3026,94.0361" id="Fill-92" fill="#6259C4"/>
                            <path d="M81.8407,144.2637 L73.8937,144.2637 C73.8937,139.4887 70.0087,135.6037 65.2347,135.6037 L65.2347,127.6577 C74.3907,127.6577 81.8407,135.1067 81.8407,144.2637" id="Fill-93" fill="#FF5161"/>
                            <path d="M374.9442,107.959 L380.5632,102.34 C383.9402,105.716 389.4332,105.716 392.8092,102.34 L398.4292,107.959 C391.9552,114.434 381.4192,114.434 374.9442,107.959" id="Fill-94" fill="#6259C4"/>
                            <path d="M169.1873,296.5381 C169.1873,298.0361 167.9733,299.2501 166.4753,299.2501 C164.9773,299.2501 163.7623,298.0361 163.7623,296.5381 C163.7623,295.0401 164.9773,293.8261 166.4753,293.8261 C167.9733,293.8261 169.1873,295.0401 169.1873,296.5381" id="Fill-95" fill="#6259C4"/>
                            <path d="M470.6053,320.5938 C470.6053,322.0918 469.3903,323.3058 467.8933,323.3058 C466.3953,323.3058 465.1803,322.0918 465.1803,320.5938 C465.1803,319.0958 466.3953,317.8818 467.8933,317.8818 C469.3903,317.8818 470.6053,319.0958 470.6053,320.5938" id="Fill-96" fill="#6259C4"/>
                            <path d="M164.242,146.5215 C164.242,148.0195 163.028,149.2335 161.53,149.2335 C160.032,149.2335 158.818,148.0195 158.818,146.5215 C158.818,145.0235 160.032,143.8085 161.53,143.8085 C163.028,143.8085 164.242,145.0235 164.242,146.5215" id="Fill-97" fill="#60D2F4"/>
                            <path d="M276.1932,124.0137 C276.1932,127.0227 273.7542,129.4617 270.7452,129.4617 C267.7352,129.4617 265.2972,127.0227 265.2972,124.0137 C265.2972,121.0047 267.7352,118.5657 270.7452,118.5657 C273.7542,118.5657 276.1932,121.0047 276.1932,124.0137" id="Fill-98" fill="#FDC480"/>
                            <path d="M392.1346,317.8818 C392.1346,320.8908 389.6956,323.3298 386.6866,323.3298 C383.6776,323.3298 381.2386,320.8908 381.2386,317.8818 C381.2386,314.8728 383.6776,312.4338 386.6866,312.4338 C389.6956,312.4338 392.1346,314.8728 392.1346,317.8818" id="Fill-99" fill="#FF5161"/>
                            <polygon id="Fill-100" fill="#60D2F4" points="174.8856 60.6436 161.6586 47.4146 167.2806 41.7956 180.5066 55.0246"/>
                            <polygon id="Fill-101" fill="#FF5161" points="719.8026 22.75 733.0316 9.523 738.6506 15.144 725.4216 28.37"/>
                            <path d="M1049.6698,430.9521 C1049.6698,432.4501 1048.4558,433.6641 1046.9578,433.6641 C1045.4598,433.6641 1044.2458,432.4501 1044.2458,430.9521 C1044.2458,429.4541 1045.4598,428.2391 1046.9578,428.2391 C1048.4558,428.2391 1049.6698,429.4541 1049.6698,430.9521" id="Fill-102" fill="#FDC480"/>
                            <path d="M490.0594,420.5547 C490.0594,422.0527 488.8454,423.2667 487.3474,423.2667 C485.8494,423.2667 484.6354,422.0527 484.6354,420.5547 C484.6354,419.0567 485.8494,417.8417 487.3474,417.8417 C488.8454,417.8417 490.0594,419.0567 490.0594,420.5547" id="Fill-103" fill="#FF5161"/>
                            <path d="M275.961,359.98 C275.961,368.253 269.254,374.96 260.981,374.96 C252.707,374.96 246,368.253 246,359.98 C246,351.707 252.707,345 260.981,345 C269.254,345 275.961,351.707 275.961,359.98" id="Fill-47" fill="#FDC480"/>
                        </g>
                    </g>
                </g>
            </g>
        </g>
    </g>
</svg>